<?xml version="1.0" encoding="iso-8859-1"?>
<!-- Generator: Adobe Illustrator 19.0.0, SVG Export Plug-In . SVG Version: 6.00 Build 0)  -->
<svg version="1.1" id="Capa_1" xmlns="http://www.w3.org/2000/svg" xmlns:xlink="http://www.w3.org/1999/xlink" x="0px" y="0px"
	 viewBox="0 0 511.997 511.997" style="enable-background:new 0 0 511.997 511.997;" xml:space="preserve">
<path style="fill:#464D59;" d="M65.641,336.095c-27.193-9.897-65.173-44.253-57.033-66.616c8.14-22.364,59.317-24.268,86.51-14.371
	c27.193,9.897,36.892,33.959,28.752,56.323C115.731,333.795,92.834,345.993,65.641,336.095z"/>
<path style="opacity:0.1;enable-background:new    ;" d="M65.641,336.095c-27.193-9.897-65.173-44.253-57.033-66.616
	c8.14-22.364,59.317-24.268,86.51-14.371c27.193,9.897,36.892,33.959,28.752,56.323C115.731,333.795,92.834,345.993,65.641,336.095z
	"/>
<path style="opacity:0.1;enable-background:new    ;" d="M95.118,255.107c-10.001-3.64-23.246-5.681-36.401-5.697
	c-4.741,29.874-5.022,58.527-0.905,83.314c2.672,1.316,5.298,2.45,7.829,3.371c27.193,9.897,50.09-2.3,58.23-24.665
	C132.011,289.067,122.311,265.005,95.118,255.107z"/>
<path style="fill:#464D59;" d="M446.352,336.095c27.193-9.897,65.173-44.253,57.033-66.616
	c-8.14-22.364-59.317-24.268-86.511-14.371c-27.193,9.897-36.892,33.959-28.752,56.323
	C396.262,333.795,419.159,345.993,446.352,336.095z"/>
<path style="opacity:0.1;enable-background:new    ;" d="M446.352,336.095c27.193-9.897,65.173-44.253,57.033-66.616
	c-8.14-22.364-59.317-24.268-86.511-14.371c-27.193,9.897-36.892,33.959-28.752,56.323
	C396.262,333.795,419.159,345.993,446.352,336.095z"/>
<path style="opacity:0.1;enable-background:new    ;" d="M416.875,255.107c10.001-3.64,23.246-5.681,36.401-5.697
	c4.741,29.874,5.022,58.527,0.905,83.314c-2.672,1.316-5.298,2.45-7.829,3.371c-27.193,9.897-50.09-2.3-58.23-24.665
	C379.982,289.067,389.682,265.005,416.875,255.107z"/>
<path style="fill:#464D59;" d="M255.997,436.938c86.739,0,156.844-17.494,178.127-87.765
	c27.924-92.193-26.915-290.386-178.127-290.386S49.946,256.98,77.87,349.174C99.153,419.444,169.258,436.938,255.997,436.938z"/>
<path style="fill:#FFFFFF;" d="M362.861,301.14c-5.296-10.8-3.061-23.707,5.393-32.264c14.497-14.674,23.279-35,22.727-57.383
	c-1.026-41.624-34.905-75.648-76.525-76.841c-18.654-0.535-35.894,5.416-49.647,15.758c-5.194,3.905-12.43,3.905-17.625,0
	c-13.753-10.341-30.994-16.292-49.648-15.758c-41.619,1.193-75.499,35.216-76.525,76.841c-0.551,22.383,8.231,42.708,22.727,57.383
	c8.454,8.557,10.69,21.464,5.393,32.264c-15.68,31.972-25.609,69.557-30.052,105.563c33.425,23.169,81.81,30.236,136.916,30.236
	s103.491-7.067,136.916-30.235C388.47,370.697,378.54,333.113,362.861,301.14z"/>
<path style="fill:#F1C650;" d="M255.997,263.705c12.374,0,25.638-11.209,28.298-30.284c3.223-23.115-12.669-28.04-28.298-28.04
	s-31.521,4.925-28.298,28.04C230.359,252.496,243.623,263.705,255.997,263.705z"/>
<path style="opacity:0.1;enable-background:new    ;" d="M261.833,262.893c-19.673-7.365-25.781-43.427-17.251-56.392
	c-10.938,2.458-19.305,9.556-16.884,26.921c2.66,19.075,15.924,30.284,28.298,30.284
	C257.935,263.705,259.895,263.43,261.833,262.893z"/>
<g>
	<ellipse style="fill:#F27281;" cx="175.653" cy="218.992" rx="26.532" ry="21.131"/>
	<ellipse style="fill:#F27281;" cx="336.349" cy="218.992" rx="26.532" ry="21.131"/>
</g>
<path style="opacity:0.1;enable-background:new    ;" d="M189.115,73.535C88.977,121.15,54.541,272.152,77.87,349.174
	c21.285,70.271,91.388,87.765,178.127,87.765c34.58,0,66.511-2.786,93.764-10.582C142.702,434.612,140.447,168.433,189.115,73.535z"
	/>
<g>
	<path style="fill:#F1C650;" d="M219.484,453.221H187.65c-9.641,0-17.458-7.816-17.458-17.458l0,0
		c0-9.641,7.816-17.458,17.458-17.458h31.834c9.641,0,17.458,7.816,17.458,17.458l0,0
		C236.94,445.405,229.125,453.221,219.484,453.221z"/>
	<path style="fill:#F1C650;" d="M292.51,453.221h31.834c9.641,0,17.458-7.816,17.458-17.458l0,0c0-9.641-7.816-17.458-17.458-17.458
		H292.51c-9.641,0-17.458,7.816-17.458,17.458l0,0C275.053,445.405,282.869,453.221,292.51,453.221z"/>
</g>
<path d="M510.434,266.914c-7.35-20.195-38.601-26.742-67.027-24.635c-5.223-28.002-14.299-56.088-26.838-81.087
	c-1.857-3.702-6.363-5.198-10.067-3.341c-3.702,1.857-5.198,6.364-3.341,10.066c26.72,53.267,37.018,120.914,26.4,168.998
	c-0.037,0.149-0.067,0.3-0.094,0.452c-0.741,3.306-1.578,6.523-2.519,9.631c-5.672,18.725-15.005,33.734-28.432,45.747
	c-5.46-34.677-15.362-67.262-28.919-94.908c-3.852-7.853-2.246-17.375,3.995-23.691c16.634-16.839,25.474-39.155,24.89-62.839
	c-0.544-22.06-9.501-42.903-25.224-58.69c-15.724-15.788-36.528-24.831-58.585-25.463c-19.799-0.563-38.598,5.4-54.37,17.26
	c-2.533,1.906-6.073,1.906-8.608-0.001c-15.771-11.858-34.569-17.824-54.37-17.26c-22.057,0.632-42.862,9.675-58.585,25.463
	c-15.722,15.788-24.679,36.63-25.223,58.69c-0.584,23.684,8.255,46.001,24.889,62.839c6.24,6.317,7.846,15.838,3.995,23.69
	c-4.726,9.637-9.074,20.054-12.924,30.959c-1.379,3.906,0.67,8.19,4.576,9.569c3.906,1.378,8.19-0.67,9.569-4.576
	c3.656-10.357,7.776-20.232,12.247-29.347c6.657-13.576,3.928-29.987-6.792-40.837c-13.743-13.912-21.047-32.354-20.565-51.927
	c0.449-18.205,7.855-35.419,20.856-48.475c13-13.055,30.184-20.532,48.385-21.054c16.368-0.474,31.899,4.46,44.925,14.254
	c7.842,5.897,18.797,5.897,26.639,0c13.026-9.794,28.569-14.728,44.926-14.255c18.201,0.521,35.385,7.998,48.386,21.054
	c13.001,13.054,20.408,30.27,20.856,48.475c0.482,19.573-6.82,38.014-20.564,51.927c-10.72,10.85-13.449,27.262-6.792,40.837
	c13.727,27.989,23.858,62.843,28.733,98.6c-11.457,7.272-25.006,12.936-41.025,17.158c-4.577-5.721-11.61-9.395-19.49-9.395H292.51
	c-11.528,0-21.252,7.859-24.105,18.5c-8.142,0.172-16.674,0.172-24.816,0c-2.854-10.64-12.576-18.5-24.105-18.5h-31.834
	c-7.879,0-14.913,3.674-19.49,9.394c-16.024-4.223-29.575-9.889-41.035-17.165c1.703-12.51,4.043-24.956,6.981-37.059
	c0.977-4.025-1.495-8.08-5.52-9.057c-4.027-0.977-8.081,1.494-9.057,5.52c-2.409,9.93-4.427,20.082-6.045,30.309
	c-13.428-12.013-22.763-27.024-28.435-45.75c-0.954-3.152-1.806-6.451-2.56-9.874c-0.006-0.028-0.012-0.055-0.019-0.083
	c-5.185-23.6-5.574-53.297-0.648-84.407c0.127-0.412,0.228-0.837,0.284-1.28c0.034-0.271,0.052-0.541,0.057-0.809
	c6.677-40.303,22.258-82.788,47.879-117.319c22.659-30.538,62.903-66.94,125.957-66.94c66.646,0,108.075,40.333,131.094,74.17
	c2.329,3.424,6.992,4.313,10.42,1.983c3.425-2.33,4.313-6.995,1.982-10.42c-35.93-52.815-85.551-80.733-143.496-80.733
	c-54.848,0-102.569,25.244-138.004,73.003c-23.483,31.649-40.987,73.105-49.288,116.729c-0.079,0.418-0.152,0.835-0.23,1.252
	c-28.397-2.08-59.574,4.475-66.914,24.643c-4.701,12.917,1.284,29.143,16.853,45.688c12.61,13.401,29.725,25.105,44.664,30.541
	c1.937,0.705,3.896,1.311,5.858,1.832c0.547,2.172,1.129,4.301,1.757,6.372c12.838,42.388,42.995,69.562,92.049,82.922
	c-0.029,0.495-0.049,0.993-0.049,1.495c0,13.761,11.195,24.958,24.958,24.958h31.834c10.767,0,19.963-6.854,23.455-16.428
	c4.276,0.093,8.641,0.145,13.058,0.145s8.781-0.051,13.058-0.145c3.492,9.573,12.687,16.428,23.455,16.428h31.834
	c13.762,0,24.958-11.195,24.958-24.958c0-0.502-0.019-1-0.049-1.494c49.054-13.358,79.21-40.532,92.049-82.922
	c0.629-2.076,1.201-4.21,1.747-6.369c1.965-0.521,3.927-1.128,5.868-1.834c14.939-5.438,32.052-17.141,44.663-30.541
	C509.15,296.057,515.135,279.831,510.434,266.914z M65.622,328.037c-12.12-5.02-26.083-14.873-36.284-25.715
	C18.185,290.47,13.07,279.15,15.656,272.044c3.749-10.303,25.568-16.499,50.427-14.913C62.669,282.25,62.53,306.719,65.622,328.037z
	 M229.406,436.445c-0.352,5.173-4.661,9.276-9.922,9.276H187.65c-5.49,0-9.957-4.466-9.957-9.957c0-5.49,4.466-9.957,9.957-9.957
	h31.834c5.478,0,9.934,4.447,9.955,9.92l-0.033,0.535C229.403,436.323,229.407,436.384,229.406,436.445z M324.344,445.721H292.51
	c-5.261,0-9.571-4.105-9.922-9.279c-0.002-0.065,0.003-0.128,0-0.193l-0.034-0.485c0-5.49,4.466-9.957,9.956-9.957h31.834
	c5.49,0,9.957,4.467,9.957,9.957C334.302,441.255,329.835,445.721,324.344,445.721z M446.38,328.038
	c3.152-21.611,2.867-45.991-0.565-70.9c24.899-1.607,46.769,4.589,50.523,14.906C501.91,287.353,472.002,317.468,446.38,328.038z
	 M185.982,196.002c0-2.828,2.301-5.128,5.128-5.128c2.828,0,5.128,2.301,5.128,5.128c0,4.142,3.358,7.5,7.5,7.5
	c4.142,0,7.5-3.358,7.5-7.5c0-11.099-9.03-20.129-20.129-20.129c-11.099,0-20.129,9.03-20.129,20.129c0,4.142,3.358,7.5,7.5,7.5
	C182.624,203.503,185.982,200.144,185.982,196.002z M315.755,196.002c0-2.828,2.301-5.128,5.128-5.128
	c2.827,0,5.128,2.301,5.128,5.128c0,4.142,3.357,7.5,7.5,7.5c4.143,0,7.5-3.358,7.5-7.5c0-11.099-9.029-20.129-20.129-20.129
	s-20.129,9.03-20.129,20.129c0,4.142,3.357,7.5,7.5,7.5C312.397,203.503,315.755,200.144,315.755,196.002z M255.997,271.205
	c15.207,0,32.361-12.622,35.726-36.748c1.524-10.93-0.507-19.694-6.037-26.049c-6.079-6.985-16.068-10.527-29.688-10.527
	c-13.621,0-23.61,3.542-29.689,10.527c-5.53,6.355-7.561,15.12-6.038,26.049C223.635,258.582,240.789,271.205,255.997,271.205z
	 M237.624,218.255c3.103-3.566,9.284-5.374,18.373-5.374s15.27,1.808,18.373,5.374c2.555,2.936,3.395,7.689,2.497,14.13
	c-2.158,15.472-12.363,23.82-20.87,23.82c-8.507,0-18.712-8.348-20.87-23.819C234.229,225.944,235.069,221.19,237.624,218.255z"/>
<g>
</g>
<g>
</g>
<g>
</g>
<g>
</g>
<g>
</g>
<g>
</g>
<g>
</g>
<g>
</g>
<g>
</g>
<g>
</g>
<g>
</g>
<g>
</g>
<g>
</g>
<g>
</g>
<g>
</g>
</svg>
